<?xml version="1.0" encoding="utf-8"?>
<!DOCTYPE svg PUBLIC "-//W3C//DTD SVG 1.1//EN" "http://www.w3.org/Graphics/SVG/1.1/DTD/svg11.dtd">
<svg version="1.1" id="图形" xmlns="http://www.w3.org/2000/svg" xmlns:xlink="http://www.w3.org/1999/xlink" x="0px" y="0px" width="1024px" height="1024px" viewBox="0 0 1024 1024" enable-background="new 0 0 1024 1024" xml:space="preserve">
  <path fill="#272636" d="M512 24.288c311.808 0 472.64 275.712 472.64 275.712S834.88 575.712 512 575.712C210.048 575.712 39.36 300 39.36 300S183.808 24.288 512 24.288zM512 536.288C763.648 536.288 945.216 300 945.216 300S778.24 63.712 512 63.712C259.264 63.712 78.784 300 78.784 300S294.848 536.288 512 536.288zM512 103.072c108.736 0 196.928 88.192 196.928 196.928 0 108.736-88.192 196.928-196.928 196.928C403.264 496.928 315.072 408.736 315.072 300 315.072 191.264 403.264 103.072 512 103.072zM512 457.504c86.976 0 157.568-70.528 157.568-157.568 0-86.976-70.528-157.504-157.568-157.504-86.976 0-157.568 70.528-157.568 157.504C354.432 386.976 425.024 457.504 512 457.504zM512 812C229.248 812 0 582.752 0 300s229.248-512 512-512c282.752 0 512 229.248 512 512S794.752 812 512 812zM512-172.64c-260.992 0-472.64 211.584-472.64 472.64 0 260.992 211.584 472.64 472.64 472.64 260.992 0 472.64-211.584 472.64-472.64C984.64 39.008 772.992-172.64 512-172.64zM590.784 300l39.36 0C627.712 419.36 512 418.144 512 418.144l0-39.36C592 378.784 590.784 300 590.784 300z" transform="translate(0, 812) scale(1, -1)"/>
</svg>
